<?xml version="1.0" encoding="UTF-8" standalone="no"?>
<!-- Generator: Adobe Illustrator 16.0.0, SVG Export Plug-In . SVG Version: 6.00 Build 0)  -->

<svg
   xmlns:dc="http://purl.org/dc/elements/1.1/"
   xmlns:cc="http://creativecommons.org/ns#"
   xmlns:rdf="http://www.w3.org/1999/02/22-rdf-syntax-ns#"
   xmlns:svg="http://www.w3.org/2000/svg"
   xmlns="http://www.w3.org/2000/svg"
   xmlns:sodipodi="http://sodipodi.sourceforge.net/DTD/sodipodi-0.dtd"
   xmlns:inkscape="http://www.inkscape.org/namespaces/inkscape"
   version="1.1"
   x="0px"
   y="0px"
   width="450"
   height="660"
   viewBox="0 0 450 660"
   enable-background="new 0 0 828 702"
   xml:space="preserve"
   id="svg2"
   inkscape:version="0.91 r13725"
   sodipodi:docname="Arborist - color.svg"
   inkscape:export-filename="C:\Users\Tom\Documents\Projects\RootCauseTree\Arborist-256.png"
   inkscape:export-xdpi="34.909092"
   inkscape:export-ydpi="34.909092"><sodipodi:namedview
     pagecolor="#ffffff"
     bordercolor="#666666"
     borderopacity="1"
     objecttolerance="10"
     gridtolerance="10000"
     guidetolerance="10"
     inkscape:pageopacity="0"
     inkscape:pageshadow="2"
     inkscape:window-width="1366"
     inkscape:window-height="705"
     id="namedview72"
     showgrid="true"
     fit-margin-top="0"
     fit-margin-left="0"
     fit-margin-right="0"
     fit-margin-bottom="0"
     inkscape:zoom="1"
     inkscape:cx="54.456094"
     inkscape:cy="372.00429"
     inkscape:window-x="1592"
     inkscape:window-y="-8"
     inkscape:window-maximized="1"
     inkscape:current-layer="svg2"><inkscape:grid
       visible="false"
       dotted="false"
       id="grid4226"
       type="xygrid" /></sodipodi:namedview><metadata
     id="metadata76"><rdf:RDF><cc:Work
         rdf:about=""><dc:format>image/svg+xml</dc:format><dc:type
           rdf:resource="http://purl.org/dc/dcmitype/StillImage" /><dc:title></dc:title></cc:Work></rdf:RDF></metadata><defs
     id="defs74" /><polygon
     transform="translate(-182.14,-18.000051)"
     points="472.553,64.826 464.109,102.538 451.209,160.157 437.334,222.13 428.42,261.945 422,275.667 411.333,275.667 408.481,29.04 442.558,35.475 471.568,51.144 "
     id="polygon5"
     style="fill:#ffd72a" /><path
     transform="matrix(1.000000,0.000000,0.000000,1.000000,0.000000,0.000000)"
     d="M296.0 41.0L321.15490453 62.7160339976C321.15490453 62.7160339976 338.783735359 79.1493831511 339.496750816 79.9972585786C340.209766273 80.845134006 341.0 88.7265670574 341.0 88.7265670574C341.0 88.7265670574 332.02262395 101.640131751 332.143966947 101.464743808C332.265309943 101.289355865 306.546611756 138.283183025 306.546611756 138.283183025L279.030833824 177.862729575L266.0 192.0L296.0 41.0Z"
     id="path7"
     inkscape:connector-curvature="0"
     style="fill:#ffb129" /><polygon
     transform="translate(-182.14,-18.000051)"
     points="410.668,329.333 440.517,229.667 526.289,103.64 552.672,140.451 574.869,179.058 414,431.334 "
     id="polygon9"
     style="fill:#ffd72a" /><path
     transform="matrix(1.000000,0.000000,0.000000,1.000000,0.000000,0.000000)"
     d="M284.0 349.0C284.0 349.0 284.666142741 341.653291617 285.330291043 340.651422207C285.994439345 339.649552797 394.457037003 170.0 394.457037003 170.0L420.675936627 227.643558371L435.0 283.089015258L284.0 349.0Z"
     id="path11"
     inkscape:connector-curvature="0"
     style="fill:#ff7f2b" /><path
     transform="matrix(1.000000,0.000000,0.000000,1.000000,0.000000,0.000000)"
     d="M276.0 355.0C277.025101508 354.964138035 435.924216937 287.0 435.924216937 287.0L439.0 321.199598265L436.930800464 355.398196396L426.989037123 382.935898944L232.0 525.0L232.0 423.986418342L276.0 355.0Z"
     id="path13"
     inkscape:connector-curvature="0"
     style="fill:#fcb539" /><polygon
     transform="translate(-182.14,-18.000051)"
     points="570.162,486.249 534.795,524.666 469.006,511.666 605.006,410.666 599.76,438.758 "
     id="polygon15"
     style="fill:#ff7f2b" /><path
     transform="matrix(1.000000,0.000000,0.000000,1.000000,0.000000,0.000000)"
     d="M230.0 538.0C231.008128946 537.611480962 284.226091208 496.0 284.226091208 496.0L345.0 510.126956319L306.651939683 532.979268862L245.065703883 547.0L230.0 538.0Z"
     id="path17"
     inkscape:connector-curvature="0"
     style="fill:#fcb539" /><polygon
     transform="translate(-182.14,-18.000051)"
     points="284.005,524.666 257.21,499.682 238.829,477.812 349.491,456.738 407.04,499.682 407.04,563.665 336.124,552.017 "
     id="polygon19"
     style="fill:#82b52c" /><polygon
     transform="translate(-182.14,-18.000051)"
     points="199.471,389.309 221.671,456.738 237.004,475.299 342.671,455.002 197.005,344.203 "
     id="polygon21"
     style="fill:#aad53d" /><polygon
     transform="translate(-182.14,-18.000051)"
     points="199.643,293.664 206.74,264.021 209.957,253.25 354.462,319.05 404.455,399.669 407.04,494.001 198.672,334.668 "
     id="polygon23"
     style="fill:#c0e921" /><polygon
     transform="translate(-182.14,-18.000051)"
     points="251.626,167.612 352.671,316.161 212.006,253.25 227.484,206.689 "
     id="polygon25"
     style="fill:#aad53d" /><polygon
     transform="translate(-182.14,-18.000051)"
     points="278.049,118.21 303.915,86.583 313.007,80.334 378.537,139.992 404.455,209.333 404.455,386 253.674,158.937 "
     id="polygon27"
     style="fill:#c0e921" /><polygon
     transform="translate(-182.14,-18.000051)"
     points="349.944,51.783 377.143,126.924 374.007,130.777 315.673,80.334 332.34,65.002 "
     id="polygon29"
     style="fill:#85b734" /><polygon
     transform="translate(-182.14,-18.000051)"
     points="404.455,31.335 404.455,172.668 400.673,178.002 354.007,48.054 375.007,36.668 "
     id="polygon31"
     style="fill:#c1e926" /><path
     transform="matrix(1.000000,0.000000,0.000000,1.000000,0.000000,0.000000)"
     style="stroke:#2c1b04;stroke-width:17.0;stroke-miterlimit:10;fill:none"
     inkscape:connector-curvature="0"
     id="path35"
     d="M224.5 11.5C323.124338463 7.42062350146 438.499132804 201.078025446 438.499132804 324.331187143C438.499132804 447.584348838 342.68888694 547.500077482 224.5 547.500077482"
     stroke-miterlimit="10" /><path
     transform="matrix(1.000000,0.000000,0.000000,1.000000,0.000000,0.000000)"
     stroke-miterlimit="10"
     d="M226.5 11.5C127.868409425 7.42062407308 12.5 201.077998884 12.5 324.331143312C12.511709358 447.584287737 108.316653021 547.500002382 226.5 547.500002382"
     id="path38"
     inkscape:connector-curvature="0"
     style="stroke:#2c1b04;stroke-width:17.0;stroke-miterlimit:10;fill:none" /><path
     transform="matrix(1.000000,0.000000,0.000000,1.000000,0.000000,0.000000)"
     style="fill:#2c1b04"
     inkscape:connector-curvature="0"
     id="path41"
     d="M217.0 480.0C216.827098403 497.161445127 216.993271518 513.824438147 217.156386233 530.214464045C217.839118403 562.993515962 218.325404146 594.680699389 218.846351765 624.728080322C218.950337395 630.55837809 219.057381426 636.300686456 219.165444925 642.0C224.039516481 641.748030349 228.93295791 641.684038056 233.825379872 641.595048774C233.931404437 636.027719333 234.035390067 630.41939483 234.137336763 624.728080322C234.658284382 594.679699509 235.143550657 562.993515962 235.506480897 530.214464045C235.669595611 513.824438147 235.835768726 497.161445127 236.003980775 480.294476674C236.793048207 463.426508342 236.932715181 446.354564578 237.0 429.144637433C237.2283606 394.726782903 237.259964076 359.761994248 237.317054226 324.798205473C236.627894557 289.833416819 236.61056362 254.868628164 236.381183553 220.450773634C236.336327006 211.846809941 236.290450992 203.275842274 236.245594446 194.747869428C236.172192825 186.219896583 236.097771736 177.734918559 236.025389582 169.300934393C235.859216467 152.43296606 235.695082285 135.76997304 235.532987038 119.380947022C235.171076266 86.6018941053 234.686829458 54.9147106784 234.167920772 24.867329745C234.084324482 20.199891916 233.998689257 15.5864475838 233.913054031 11.0C228.962522452 11.2769666407 224.01301034 11.4379472513 219.065537162 11.296964232C218.980921404 15.7854236181 218.897325113 20.3008797525 218.815767756 24.867329745C218.29685907 54.9147106784 217.813631729 86.6018941053 217.45070149 119.380947022C217.288606243 135.77097292 217.124472061 152.43396594 216.958298946 169.300934393C216.884897325 177.734918559 216.811495703 186.219896583 216.738094082 194.747869428C216.089713093 203.274842394 216.044856546 211.845810061 216.0 220.450773634C215.770619933 254.868628164 215.753288995 289.833416819 215.698237779 324.798205473C216.359871838 359.762994128 216.390455847 394.727782783 216.618816447 429.144637433C216.70435458 446.059088024 216.844021555 463.132031668 217.0 480.0Z" /><line
     stroke-miterlimit="10"
     x1="226.34099"
     y1="657.99994"
     x2="226.34001"
     y2="367.99994"
     id="line44"
     style="fill:none;stroke:#2c1b04;stroke-width:20;stroke-linejoin:round;stroke-miterlimit:10" /><line
     style="fill:none;stroke:#2c1b04;stroke-width:17;stroke-miterlimit:10"
     id="line47"
     y2="320.31293"
     x2="12.535003"
     y1="481.68195"
     x1="224.90001"
     stroke-miterlimit="10" /><line
     style="fill:none;stroke:#2c1b04;stroke-width:17;stroke-miterlimit:10"
     id="line49"
     y2="378.36395"
     x2="432.32898"
     y1="535.12897"
     x1="226.34099"
     stroke-miterlimit="10" /><line
     style="fill:none;stroke:#2c1b04;stroke-width:17;stroke-miterlimit:10"
     id="line51"
     y2="164.78096"
     x2="394.62897"
     y1="427.32895"
     x1="226.34001"
     stroke-miterlimit="10" /><line
     style="fill:none;stroke:#2c1b04;stroke-width:17;stroke-miterlimit:10"
     id="line53"
     y2="140.93695"
     x2="69.486008"
     y1="384.99994"
     x1="226.34099"
     stroke-miterlimit="10" /><line
     style="fill:none;stroke:#2c1b04;stroke-width:17;stroke-miterlimit:10"
     id="line55"
     y2="35.602951"
     x2="292.92499"
     y1="332.99994"
     x1="226.34099"
     stroke-miterlimit="10" /><line
     style="fill:none;stroke:#2c1b04;stroke-width:17;stroke-miterlimit:10"
     id="line57"
     y2="30.053949"
     x2="166.455"
     y1="195.49995"
     x1="226.34001"
     stroke-miterlimit="10" /><line
     style="fill:none;stroke:#2c1b04;stroke-width:9;stroke-miterlimit:10"
     id="line60"
     y2="508.12494"
     x2="347.10999"
     y1="495.74994"
     x1="279.35999"
     stroke-miterlimit="10" /><line
     style="fill:none;stroke:#2c1b04;stroke-width:9;stroke-miterlimit:10"
     id="line62"
     y2="460.06494"
     x2="55.360001"
     y1="438.73795"
     x1="167.351"
     stroke-miterlimit="10" /><line
     style="fill:none;stroke:#2c1b04;stroke-width:9;stroke-miterlimit:10"
     id="line64"
     y2="235.24995"
     x2="25.360001"
     y1="304.99994"
     x1="176.86"
     stroke-miterlimit="10" /><line
     style="fill:none;stroke:#2c1b04;stroke-width:9;stroke-miterlimit:10"
     id="line66"
     y2="62.33395"
     x2="127.70299"
     y1="126.21595"
     x1="201.26201"
     stroke-miterlimit="10" /><line
     style="fill:none;stroke:#2c1b04;stroke-width:9;stroke-miterlimit:10"
     id="line68"
     y2="84.537949"
     x2="343.25598"
     y1="214.68796"
     x1="252.83"
     stroke-miterlimit="10" /><line
     style="fill:none;stroke:#2c1b04;stroke-width:9;stroke-miterlimit:10"
     id="line70"
     y2="282.87695"
     x2="435.28497"
     y1="357.74994"
     x1="270.02499"
     stroke-miterlimit="10" /></svg>