<?xml version="1.0" encoding="UTF-8" standalone="no"?>
<!-- Generator: Adobe Illustrator 16.0.0, SVG Export Plug-In . SVG Version: 6.00 Build 0)  -->

<svg
   xmlns:dc="http://purl.org/dc/elements/1.1/"
   xmlns:cc="http://creativecommons.org/ns#"
   xmlns:rdf="http://www.w3.org/1999/02/22-rdf-syntax-ns#"
   xmlns:svg="http://www.w3.org/2000/svg"
   xmlns="http://www.w3.org/2000/svg"
   xmlns:sodipodi="http://sodipodi.sourceforge.net/DTD/sodipodi-0.dtd"
   xmlns:inkscape="http://www.inkscape.org/namespaces/inkscape"
   version="1.1"
   x="0px"
   y="0px"
   width="443.23999"
   height="553.14636"
   viewBox="0 0 443.23999 553.14636"
   enable-background="new 0 0 828 702"
   xml:space="preserve"
   id="svg2"
   inkscape:version="0.91 r13725"
   sodipodi:docname="Arborist - color - noStem.svg"
   inkscape:export-filename="C:\Users\Tom\Documents\Projects\RootCauseTree\Arborist-256.png"
   inkscape:export-xdpi="35.127697"
   inkscape:export-ydpi="35.127697"><metadata
     id="metadata76"><rdf:RDF><cc:Work
         rdf:about=""><dc:format>image/svg+xml</dc:format><dc:type
           rdf:resource="http://purl.org/dc/dcmitype/StillImage" /><dc:title></dc:title></cc:Work></rdf:RDF></metadata><defs
     id="defs74" /><sodipodi:namedview
     pagecolor="#ffffff"
     bordercolor="#666666"
     borderopacity="1"
     objecttolerance="10"
     gridtolerance="10"
     guidetolerance="10"
     inkscape:pageopacity="0"
     inkscape:pageshadow="2"
     inkscape:window-width="1600"
     inkscape:window-height="837"
     id="namedview72"
     showgrid="false"
     fit-margin-top="0"
     fit-margin-left="0"
     fit-margin-right="0"
     fit-margin-bottom="0"
     inkscape:zoom="0.70710678"
     inkscape:cx="286.47594"
     inkscape:cy="236.57817"
     inkscape:window-x="-8"
     inkscape:window-y="-8"
     inkscape:window-maximized="1"
     inkscape:current-layer="svg2" /><g
     id="Layer_22_copy"
     transform="translate(-186.14,-20.475637)"><polygon
       points="411.333,275.667 408.481,29.04 442.558,35.475 471.568,51.144 472.553,64.826 464.109,102.538 451.209,160.157 437.334,222.13 428.42,261.945 422,275.667 "
       id="polygon5"
       style="fill:#ffd72a" /><path
       d="m 478.002,58.667 25,21.668 c 0,0 17.579,16.397 18.29,17.243 0.711,0.846 1.499,8.71 1.499,8.71 0,0 -8.952,12.885 -8.831,12.71 0.121,-0.175 -25.525,36.737 -25.525,36.737 l -27.438,39.492 -12.994,14.106 29.999,-150.666 z"
       id="path7"
       inkscape:connector-curvature="0"
       style="fill:#ffb129" /><polygon
       points="574.869,179.058 414,431.334 410.668,329.333 440.517,229.667 526.289,103.64 552.672,140.451 "
       id="polygon9"
       style="fill:#ffd72a" /><path
       d="m 466.004,366.666 c 0,0 0.668,-7.333 1.334,-8.333 C 468.004,357.333 576.769,188 576.769,188 l 26.292,57.536 14.364,55.342 -151.421,65.788 z"
       id="path11"
       inkscape:connector-curvature="0"
       style="fill:#ff7f2b" /><path
       d="m 458.044,373.087 c 0.955,-0.434 159.762,-68.389 159.762,-68.389 l 3.074,34.195 -2.068,34.194 -9.936,27.534 L 414,542.666 l 0,-101 44.044,-68.579 z"
       id="path13"
       inkscape:connector-curvature="0"
       style="fill:#fcb539" /><polygon
       points="534.795,524.666 469.006,511.666 605.006,410.666 599.76,438.758 570.162,486.249 "
       id="polygon15"
       style="fill:#ff7f2b" /><path
       d="m 411.741,556.332 c 1.004,-0.667 54.004,-42.582 54.004,-42.582 l 60.525,14.23 -38.191,23.019 -61.334,14.123 -15.004,-8.79 z"
       id="path17"
       inkscape:connector-curvature="0"
       style="fill:#fcb539" /><polygon
       points="284.005,524.666 257.21,499.682 238.829,477.812 349.491,456.738 407.04,499.682 407.04,563.665 336.124,552.017 "
       id="polygon19"
       style="fill:#82b52c" /><polygon
       points="221.671,456.738 237.004,475.299 342.671,455.002 197.005,344.203 199.471,389.309 "
       id="polygon21"
       style="fill:#aad53d" /><polygon
       points="199.643,293.664 206.74,264.021 209.957,253.25 354.462,319.05 404.455,399.669 407.04,494.001 198.672,334.668 "
       id="polygon23"
       style="fill:#c0e921" /><polygon
       points="212.006,253.25 227.484,206.689 251.626,167.612 352.671,316.161 "
       id="polygon25"
       style="fill:#aad53d" /><polygon
       points="278.049,118.21 303.915,86.583 313.007,80.334 378.537,139.992 404.455,209.333 404.455,386 253.674,158.937 "
       id="polygon27"
       style="fill:#c0e921" /><polygon
       points="377.143,126.924 374.007,130.777 315.673,80.334 332.34,65.002 349.944,51.783 "
       id="polygon29"
       style="fill:#85b734" /><polygon
       points="404.455,172.668 400.673,178.002 354.007,48.054 375.007,36.668 404.455,31.335 "
       id="polygon31"
       style="fill:#c1e926" /></g><g
     id="Layer_4"
     transform="translate(-186.14,-20.475637)"><path
       style="fill:none;stroke:#2c1b04;stroke-width:17;stroke-miterlimit:10"
       inkscape:connector-curvature="0"
       id="path35"
       d="m 407.04,29.04 c 98.551,-4.08 213.84,189.607 213.84,312.879 0,123.272 -95.739,223.203 -213.84,223.203"
       stroke-miterlimit="10" /><g
       id="Layer_4_copy"><path
         style="fill:none;stroke:#2c1b04;stroke-width:17;stroke-miterlimit:10"
         inkscape:connector-curvature="0"
         id="path38"
         d="M 408.481,29.04 C 309.929,24.96 194.64,218.647 194.64,341.919 c 0,123.272 95.739,223.203 213.841,223.203"
         stroke-miterlimit="10" /></g></g><g
     id="Layer_8_copy_2"
     transform="matrix(1.0000024,0,0,0.83614967,-186.14096,-15.778846)"><path
       style="fill:#2c1b04"
       inkscape:connector-curvature="0"
       id="path41"
       d="m 399.151,498.016 c 0.165,16.869 0.328,33.534 0.488,49.926 0.355,32.783 0.832,64.474 1.343,94.525 0.102,5.831 0.207,11.574 0.313,17.274 4.781,-0.252 9.581,-0.316 14.38,-0.405 0.104,-5.568 0.206,-11.177 0.306,-16.869 0.511,-30.052 0.987,-61.742 1.343,-94.525 0.16,-16.392 0.323,-33.057 0.488,-49.926 0.152,-16.87 0.289,-33.944 0.355,-51.156 0.224,-34.422 0.255,-69.391 0.311,-104.359 -0.054,-34.969 -0.071,-69.938 -0.296,-104.36 -0.044,-8.605 -0.089,-17.177 -0.133,-25.706 -0.072,-8.529 -0.145,-17.015 -0.216,-25.45 -0.163,-16.87 -0.324,-33.535 -0.483,-49.926 -0.355,-32.783 -0.83,-64.474 -1.339,-94.525 -0.082,-4.668 -0.166,-9.282 -0.25,-13.869 -4.856,0.277 -9.711,0.438 -14.564,0.297 -0.083,4.489 -0.165,9.005 -0.245,13.572 -0.509,30.051 -0.983,61.742 -1.339,94.525 -0.159,16.392 -0.32,33.057 -0.483,49.926 -0.072,8.435 -0.144,16.921 -0.216,25.45 -0.044,8.528 -0.088,17.1 -0.132,25.706 -0.225,34.422 -0.242,69.391 -0.296,104.36 0.057,34.969 0.087,69.938 0.311,104.359 0.064,17.211 0.201,34.286 0.354,51.156 z" /><g
       id="Layer_8_copy_2_1_"><line
         style="fill:none;stroke:#2c1b04;stroke-width:20;stroke-linejoin:round;stroke-miterlimit:10"
         id="line44"
         y2="386"
         x2="408.48001"
         y1="676"
         x1="408.48099"
         stroke-miterlimit="10" /></g></g><g
     id="Layer_12"
     transform="translate(-186.14,-20.475637)"><line
       style="fill:none;stroke:#2c1b04;stroke-width:17;stroke-miterlimit:10"
       id="line47"
       y2="338.31299"
       x2="194.675"
       y1="499.68201"
       x1="407.04001"
       stroke-miterlimit="10" /><line
       style="fill:none;stroke:#2c1b04;stroke-width:17;stroke-miterlimit:10"
       id="line49"
       y2="396.36401"
       x2="614.46899"
       y1="553.12903"
       x1="408.48099"
       stroke-miterlimit="10" /><line
       style="fill:none;stroke:#2c1b04;stroke-width:17;stroke-miterlimit:10"
       id="line51"
       y2="182.78101"
       x2="576.76898"
       y1="445.32901"
       x1="408.48001"
       stroke-miterlimit="10" /><line
       style="fill:none;stroke:#2c1b04;stroke-width:17;stroke-miterlimit:10"
       id="line53"
       y2="158.937"
       x2="251.62601"
       y1="403"
       x1="408.48099"
       stroke-miterlimit="10" /><line
       style="fill:none;stroke:#2c1b04;stroke-width:17;stroke-miterlimit:10"
       id="line55"
       y2="53.603001"
       x2="475.065"
       y1="351"
       x1="408.48099"
       stroke-miterlimit="10" /><line
       style="fill:none;stroke:#2c1b04;stroke-width:17;stroke-miterlimit:10"
       id="line57"
       y2="48.054001"
       x2="348.595"
       y1="213.5"
       x1="408.48001"
       stroke-miterlimit="10" /></g><g
     id="Layer_13"
     transform="translate(-186.14,-20.475637)"><line
       style="fill:none;stroke:#2c1b04;stroke-width:9;stroke-miterlimit:10"
       id="line60"
       y2="526.125"
       x2="529.25"
       y1="513.75"
       x1="461.5"
       stroke-miterlimit="10" /><line
       style="fill:none;stroke:#2c1b04;stroke-width:9;stroke-miterlimit:10"
       id="line62"
       y2="478.065"
       x2="237.5"
       y1="456.73801"
       x1="349.491"
       stroke-miterlimit="10" /><line
       style="fill:none;stroke:#2c1b04;stroke-width:9;stroke-miterlimit:10"
       id="line64"
       y2="253.25"
       x2="207.5"
       y1="323"
       x1="359"
       stroke-miterlimit="10" /><line
       style="fill:none;stroke:#2c1b04;stroke-width:9;stroke-miterlimit:10"
       id="line66"
       y2="80.334"
       x2="309.84299"
       y1="144.216"
       x1="383.40201"
       stroke-miterlimit="10" /><line
       style="fill:none;stroke:#2c1b04;stroke-width:9;stroke-miterlimit:10"
       id="line68"
       y2="102.538"
       x2="525.396"
       y1="232.688"
       x1="434.97"
       stroke-miterlimit="10" /><line
       style="fill:none;stroke:#2c1b04;stroke-width:9;stroke-miterlimit:10"
       id="line70"
       y2="300.87701"
       x2="617.42499"
       y1="375.75"
       x1="452.16501"
       stroke-miterlimit="10" /></g></svg>